{
	"asset":{
		"generator":"Khronos glTF Blender I/O v3.6.27",
		"version":"2.0"
	},
	"extensionsUsed":[
		"KHR_materials_specular",
		"KHR_materials_ior"
	],
	"scene":0,
	"scenes":[
		{
			"name":"Scene",
			"nodes":[
				0
			]
		}
	],
	"nodes":[
		{
			"mesh":0,
			"name":"Cylindre"
		}
	],
	"materials":[
		{
			"doubleSided":true,
			"extensions":{
				"KHR_materials_specular":{
					"specularColorFactor":[
						1.3999509727135568,
						1.3999509727135568,
						1.3999509727135568
					]
				},
				"KHR_materials_ior":{
					"ior":1.4500000476837158
				}
			},
			"name":"ArtMaterial",
			"pbrMetallicRoughness":{
				"baseColorFactor":[
					0.800000011920929,
					0.800000011920929,
					0.800000011920929,
					1
				],
				"metallicFactor":0.6243369579315186,
				"roughnessFactor":0.5475986003875732
			}
		},
		{
			"doubleSided":true,
			"extensions":{
				"KHR_materials_specular":{
					"specularColorFactor":[
						0.9996899858012895,
						0.9996899858012895,
						0.9996899858012895
					]
				},
				"KHR_materials_ior":{
					"ior":1.4500000476837158
				}
			},
			"name":"champsNoirs",
			"pbrMetallicRoughness":{
				"baseColorFactor":[
					0.01163195725530386,
					0.01163195725530386,
					0.01163195725530386,
					1
				],
				"metallicFactor":0.4313725531101227,
				"roughnessFactor":0.2549019455909729
			}
		},
		{
			"doubleSided":true,
			"name":"Material",
			"pbrMetallicRoughness":{
				"baseColorTexture":{
					"index":0
				},
				"metallicFactor":0,
				"roughnessFactor":0.5
			}
		}
	],
	"meshes":[
		{
			"name":"Cylindre.001",
			"primitives":[
				{
					"attributes":{
						"POSITION":0,
						"NORMAL":1,
						"TEXCOORD_0":2
					},
					"indices":3,
					"material":0
				},
				{
					"attributes":{
						"POSITION":4,
						"NORMAL":5,
						"TEXCOORD_0":6
					},
					"indices":7,
					"material":1
				},
				{
					"attributes":{
						"POSITION":8,
						"NORMAL":9,
						"TEXCOORD_0":10
					},
					"indices":11,
					"material":2
				}
			]
		}
	],
	"textures":[
		{
			"sampler":0,
			"source":0
		}
	],
	"images":[
		{
			"bufferView":12,
			"mimeType":"image/jpeg",
			"name":"liege-612x612"
		}
	],
	"accessors":[
		{
			"bufferView":0,
			"componentType":5126,
			"count":128,
			"max":[
				1,
				0.025000035762786865,
				1
			],
			"min":[
				-1,
				0.025000035762786865,
				-1
			],
			"type":"VEC3"
		},
		{
			"bufferView":1,
			"componentType":5126,
			"count":128,
			"type":"VEC3"
		},
		{
			"bufferView":2,
			"componentType":5126,
			"count":128,
			"type":"VEC2"
		},
		{
			"bufferView":3,
			"componentType":5123,
			"count":378,
			"type":"SCALAR"
		},
		{
			"bufferView":4,
			"componentType":5126,
			"count":512,
			"max":[
				1,
				0.025000035762786865,
				1
			],
			"min":[
				-1,
				-0.025000035762786865,
				-1
			],
			"type":"VEC3"
		},
		{
			"bufferView":5,
			"componentType":5126,
			"count":512,
			"type":"VEC3"
		},
		{
			"bufferView":6,
			"componentType":5126,
			"count":512,
			"type":"VEC2"
		},
		{
			"bufferView":7,
			"componentType":5123,
			"count":768,
			"type":"SCALAR"
		},
		{
			"bufferView":8,
			"componentType":5126,
			"count":128,
			"max":[
				1,
				-0.025000035762786865,
				1
			],
			"min":[
				-1,
				-0.025000035762786865,
				-1
			],
			"type":"VEC3"
		},
		{
			"bufferView":9,
			"componentType":5126,
			"count":128,
			"type":"VEC3"
		},
		{
			"bufferView":10,
			"componentType":5126,
			"count":128,
			"type":"VEC2"
		},
		{
			"bufferView":11,
			"componentType":5123,
			"count":378,
			"type":"SCALAR"
		}
	],
	"bufferViews":[
		{
			"buffer":0,
			"byteLength":1536,
			"byteOffset":0,
			"target":34962
		},
		{
			"buffer":0,
			"byteLength":1536,
			"byteOffset":1536,
			"target":34962
		},
		{
			"buffer":0,
			"byteLength":1024,
			"byteOffset":3072,
			"target":34962
		},
		{
			"buffer":0,
			"byteLength":756,
			"byteOffset":4096,
			"target":34963
		},
		{
			"buffer":0,
			"byteLength":6144,
			"byteOffset":4852,
			"target":34962
		},
		{
			"buffer":0,
			"byteLength":6144,
			"byteOffset":10996,
			"target":34962
		},
		{
			"buffer":0,
			"byteLength":4096,
			"byteOffset":17140,
			"target":34962
		},
		{
			"buffer":0,
			"byteLength":1536,
			"byteOffset":21236,
			"target":34963
		},
		{
			"buffer":0,
			"byteLength":1536,
			"byteOffset":22772,
			"target":34962
		},
		{
			"buffer":0,
			"byteLength":1536,
			"byteOffset":24308,
			"target":34962
		},
		{
			"buffer":0,
			"byteLength":1024,
			"byteOffset":25844,
			"target":34962
		},
		{
			"buffer":0,
			"byteLength":756,
			"byteOffset":26868,
			"target":34963
		},
		{
			"buffer":0,
			"byteLength":100244,
			"byteOffset":27624
		}
	],
	"samplers":[
		{
			"magFilter":9729,
			"minFilter":9987
		}
	],
	"buffers":[
		{
			"byteLength":127868,
			"uri":"data:application/octet-stream;base64,"
		}
	]
}
